<svg xmlns="http://www.w3.org/2000/svg" width="2560" height="1440" viewBox="0 0 2560 1440" role="img" aria-label="MES协同｜接入已有生产执行能力"><defs><marker id="arrow-blue" viewBox="0 0 10 10" refX="9" refY="5" markerWidth="7" markerHeight="7" orient="auto-start-reverse"><path d="M 0 0 L 10 5 L 0 10 Z" fill="#008DD5"/></marker><marker id="arrow-ink" viewBox="0 0 10 10" refX="9" refY="5" markerWidth="7" markerHeight="7" orient="auto-start-reverse"><path d="M 0 0 L 10 5 L 0 10 Z" fill="#18384E"/></marker><marker id="arrow-text" viewBox="0 0 10 10" refX="9" refY="5" markerWidth="7" markerHeight="7" orient="auto-start-reverse"><path d="M 0 0 L 10 5 L 0 10 Z" fill="#3C566B"/></marker><marker id="arrow-muted" viewBox="0 0 10 10" refX="9" refY="5" markerWidth="7" markerHeight="7" orient="auto-start-reverse"><path d="M 0 0 L 10 5 L 0 10 Z" fill="#6B7F90"/></marker><marker id="arrow-line" viewBox="0 0 10 10" refX="9" refY="5" markerWidth="7" markerHeight="7" orient="auto-start-reverse"><path d="M 0 0 L 10 5 L 0 10 Z" fill="#D5E1E9"/></marker><marker id="arrow-teal" viewBox="0 0 10 10" refX="9" refY="5" markerWidth="7" markerHeight="7" orient="auto-start-reverse"><path d="M 0 0 L 10 5 L 0 10 Z" fill="#078E99"/></marker><marker id="arrow-green" viewBox="0 0 10 10" refX="9" refY="5" markerWidth="7" markerHeight="7" orient="auto-start-reverse"><path d="M 0 0 L 10 5 L 0 10 Z" fill="#54963C"/></marker><marker id="arrow-orange" viewBox="0 0 10 10" refX="9" refY="5" markerWidth="7" markerHeight="7" orient="auto-start-reverse"><path d="M 0 0 L 10 5 L 0 10 Z" fill="#DC8226"/></marker><marker id="arrow-purple" viewBox="0 0 10 10" refX="9" refY="5" markerWidth="7" markerHeight="7" orient="auto-start-reverse"><path d="M 0 0 L 10 5 L 0 10 Z" fill="#7B60A8"/></marker></defs><style>text{font-family:"PingFang SC","Microsoft YaHei",sans-serif}</style>
<rect x="0" y="0" width="2560" height="1440" rx="0" fill="white" stroke="none" stroke-width="2" />
<rect x="64" y="57" width="9" height="64" rx="0" fill="#008DD5" stroke="none" stroke-width="2" />
<text x="95" y="107" font-size="49" fill="#008DD5" font-weight="650" text-anchor="start">MES协同｜接入已有生产执行能力</text>
<text x="2496" y="94" font-size="25" fill="#6B7F90" font-weight="500" text-anchor="end">2026 Q4 / V3.0</text>
<path d="M64 144 L2496 144" fill="none" stroke="#008DD5" stroke-width="3"  />
<text x="64" y="193" font-size="27" fill="#3C566B" font-weight="400" text-anchor="start">P1已有系统协同；订单关联、进度同步与延期预警，同时推进推广和问题治理</text>
<text x="2496" y="193" font-size="23" fill="#6B7F90" font-weight="400" text-anchor="end">09 / 模块展开</text>
<text x="64" y="283" font-size="32" fill="#18384E" font-weight="650" text-anchor="start">业务动作</text>
<rect x="64" y="348" width="452" height="172" rx="5" fill="white" stroke="#54963C" stroke-width="2" />
<rect x="64" y="348" width="5" height="172" rx="0" fill="#54963C" stroke="none" stroke-width="2" />
<text x="290" y="394" font-size="34" fill="#18384E" font-weight="600" text-anchor="middle">关联SCM订单</text>
<text x="290" y="444" font-size="27" fill="#3C566B" font-weight="400" text-anchor="middle">明确生产任务来源</text>
<text x="290" y="483" font-size="27" fill="#3C566B" font-weight="400" text-anchor="middle">建立订单与SKU对应</text>
<text x="64" y="322" font-size="24" fill="#54963C" font-weight="650" text-anchor="start">01</text>
<path d="M516 434 L557 434" fill="none" stroke="#54963C" stroke-width="3"  marker-end="url(#arrow-green)"/>
<rect x="557" y="348" width="452" height="172" rx="5" fill="white" stroke="#54963C" stroke-width="2" />
<rect x="557" y="348" width="5" height="172" rx="0" fill="#54963C" stroke="none" stroke-width="2" />
<text x="783" y="394" font-size="34" fill="#18384E" font-weight="600" text-anchor="middle">下达任务与开工</text>
<text x="783" y="444" font-size="27" fill="#3C566B" font-weight="400" text-anchor="middle">工厂承接生产要求</text>
<text x="783" y="483" font-size="27" fill="#3C566B" font-weight="400" text-anchor="middle">结合物料准备与齐料</text>
<text x="557" y="322" font-size="24" fill="#54963C" font-weight="650" text-anchor="start">02</text>
<path d="M1009 434 L1050 434" fill="none" stroke="#54963C" stroke-width="3"  marker-end="url(#arrow-green)"/>
<rect x="1050" y="348" width="452" height="172" rx="5" fill="white" stroke="#54963C" stroke-width="2" />
<rect x="1050" y="348" width="5" height="172" rx="0" fill="#54963C" stroke="none" stroke-width="2" />
<text x="1276" y="394" font-size="34" fill="#18384E" font-weight="600" text-anchor="middle">生产执行与扫菲</text>
<text x="1276" y="444" font-size="27" fill="#3C566B" font-weight="400" text-anchor="middle">采集工序及生产进度</text>
<text x="1276" y="483" font-size="27" fill="#3C566B" font-weight="400" text-anchor="middle">保留生产异常</text>
<text x="1050" y="322" font-size="24" fill="#54963C" font-weight="650" text-anchor="start">03</text>
<path d="M1502 434 L1543 434" fill="none" stroke="#54963C" stroke-width="3"  marker-end="url(#arrow-green)"/>
<rect x="1543" y="348" width="452" height="172" rx="5" fill="white" stroke="#54963C" stroke-width="2" />
<rect x="1543" y="348" width="5" height="172" rx="0" fill="#54963C" stroke="none" stroke-width="2" />
<text x="1769" y="394" font-size="34" fill="#18384E" font-weight="600" text-anchor="middle">进度与延期反馈</text>
<text x="1769" y="444" font-size="27" fill="#3C566B" font-weight="400" text-anchor="middle">对比计划与实际进度</text>
<text x="1769" y="483" font-size="27" fill="#3C566B" font-weight="400" text-anchor="middle">协同处理延期风险</text>
<text x="1543" y="322" font-size="24" fill="#54963C" font-weight="650" text-anchor="start">04</text>
<path d="M1995 434 L2036 434" fill="none" stroke="#54963C" stroke-width="3"  marker-end="url(#arrow-green)"/>
<rect x="2036" y="348" width="452" height="172" rx="5" fill="white" stroke="#54963C" stroke-width="2" />
<rect x="2036" y="348" width="5" height="172" rx="0" fill="#54963C" stroke="none" stroke-width="2" />
<text x="2262" y="394" font-size="34" fill="#18384E" font-weight="600" text-anchor="middle">完工结果回传</text>
<text x="2262" y="444" font-size="27" fill="#3C566B" font-weight="400" text-anchor="middle">完工数量与时间</text>
<text x="2262" y="483" font-size="27" fill="#3C566B" font-weight="400" text-anchor="middle">连接QC、发货和计划反馈</text>
<text x="2036" y="322" font-size="24" fill="#54963C" font-weight="650" text-anchor="start">05</text>
<path d="M2262 520 L2262 634 L290 634 L290 520" fill="none" stroke="#078E99" stroke-width="4"  marker-end="url(#arrow-teal)"/>
<rect x="1000.5999999999999" y="602" width="538.8000000000001" height="37" rx="0" fill="white" stroke="none" stroke-width="2" />
<text x="1270" y="627" font-size="26" fill="#078E99" font-weight="500" text-anchor="middle">生产延期与完工差异 → 采购与PMC协调交期</text>
<path d="M64 746 L1212 746" fill="none" stroke="#54963C" stroke-width="3"  />
<path d="M1324 746 L2496 746" fill="none" stroke="#54963C" stroke-width="3"  />
<text x="64" y="799" font-size="33" fill="#18384E" font-weight="650" text-anchor="start">Q4建设重点</text>
<text x="1324" y="799" font-size="33" fill="#18384E" font-weight="650" text-anchor="start">接口需落到执行口径</text>
<text x="64" y="864" font-size="29" fill="#3C566B" font-weight="400" text-anchor="start">复用已有MES，推进工厂使用与培训</text>
<text x="64" y="926" font-size="29" fill="#3C566B" font-weight="400" text-anchor="start">订单接入及与SCM的业务关联</text>
<text x="64" y="988" font-size="29" fill="#3C566B" font-weight="400" text-anchor="start">生产开始、进度、延期和完工状态</text>
<text x="64" y="1050" font-size="29" fill="#3C566B" font-weight="400" text-anchor="start">修复现场问题，形成持续治理清单</text>
<text x="1324" y="864" font-size="29" fill="#3C566B" font-weight="400" text-anchor="start">生产任务来源及订单关联标识</text>
<text x="1324" y="926" font-size="29" fill="#3C566B" font-weight="400" text-anchor="start">进度、完工和异常字段定义</text>
<text x="1324" y="988" font-size="29" fill="#3C566B" font-weight="400" text-anchor="start">回传频率、责任人及异常补报</text>
<text x="1324" y="1050" font-size="29" fill="#3C566B" font-weight="400" text-anchor="start">QC结果与生产返工节点如何联动</text>
<rect x="64" y="1165" width="2432" height="100" rx="0" fill="#F3F8FB" stroke="none" stroke-width="2" />
<text x="91" y="1228" font-size="30" fill="#54963C" font-weight="650" text-anchor="start">交接结果</text>
<text x="300" y="1228" font-size="29" fill="#18384E" font-weight="600" text-anchor="start">可追溯的生产进度、延期及完工数据，反馈SCM与PMC</text>
<text x="64" y="1331" font-size="25" fill="#6B7F90" font-weight="400" text-anchor="start">MES属于已有能力协同，不画成必须等待PMC / MRP完工后才启动的重建项目。</text>
<path d="M64 1384 L2496 1384" fill="none" stroke="#D5E1E9" stroke-width="1.3"  />
<text x="64" y="1420" font-size="22" fill="#6B7F90" font-weight="400" text-anchor="start">Q4供应链产品建设方案 · 汇报分层版 · 目标业务蓝图，按P0 / P1推进</text>
<text x="2496" y="1420" font-size="22" fill="#008DD5" font-weight="500" text-anchor="end">09 / 10</text>
</svg>
